<?xml version="1.0" encoding="UTF-8"?>
<svg width="300" height="500" viewBox="0 0 300 500" xmlns="http://www.w3.org/2000/svg">
  <!-- Head (A) -->
  <path id="head" d="M120,40 Q150,40 180,40 Q180,10 150,10 Q120,10 120,40" fill="#FFFFFF" stroke="#000000" stroke-width="2"/>
  
  <!-- Neck (1) -->
  <path id="neck" d="M135,40 L165,40 L165,60 L135,60 Z" fill="#FFFFFF" stroke="#000000" stroke-width="2"/>
  
  <!-- Torso (13) -->
  <path id="chest" d="M120,60 L180,60 L190,150 L110,150 Z" fill="#FFFFFF" stroke="#000000" stroke-width="2"/>
  <path id="abdomen" d="M110,150 L190,150 L185,220 L115,220 Z" fill="#FFFFFF" stroke="#000000" stroke-width="2"/>
  
  <!-- Arms (2) -->
  <path id="left-upper-arm" d="M110,60 L90,60 L80,120 L100,120 Z" fill="#FFFFFF" stroke="#000000" stroke-width="2"/>
  <path id="right-upper-arm" d="M190,60 L210,60 L220,120 L200,120 Z" fill="#FFFFFF" stroke="#000000" stroke-width="2"/>
  
  <!-- Lower Arms (1) -->
  <path id="left-lower-arm" d="M80,120 L100,120 L95,180 L75,180 Z" fill="#FFFFFF" stroke="#000000" stroke-width="2"/>
  <path id="right-lower-arm" d="M200,120 L220,120 L225,180 L205,180 Z" fill="#FFFFFF" stroke="#000000" stroke-width="2"/>
  
  <!-- Hands -->
  <path id="left-hand" d="M75,180 L95,180 L90,200 L70,200 Z" fill="#FFFFFF" stroke="#000000" stroke-width="2"/>
  <path id="right-hand" d="M205,180 L225,180 L230,200 L210,200 Z" fill="#FFFFFF" stroke="#000000" stroke-width="2"/>
  
  <!-- Legs (B) -->
  <path id="left-upper-leg" d="M115,220 L150,220 L145,300 L110,300 Z" fill="#FFFFFF" stroke="#000000" stroke-width="2"/>
  <path id="right-upper-leg" d="M150,220 L185,220 L190,300 L155,300 Z" fill="#FFFFFF" stroke="#000000" stroke-width="2"/>
  
  <!-- Lower Legs (C) -->
  <path id="left-lower-leg" d="M110,300 L145,300 L140,400 L105,400 Z" fill="#FFFFFF" stroke="#000000" stroke-width="2"/>
  <path id="right-lower-leg" d="M155,300 L190,300 L195,400 L160,400 Z" fill="#FFFFFF" stroke="#000000" stroke-width="2"/>
  
  <!-- Feet -->
  <path id="left-foot" d="M105,400 L140,400 L145,420 L100,420 Z" fill="#FFFFFF" stroke="#000000" stroke-width="2"/>
  <path id="right-foot" d="M160,400 L195,400 L200,420 L155,420 Z" fill="#FFFFFF" stroke="#000000" stroke-width="2"/>
</svg>
