<?xml version="1.0" encoding="UTF-8"?>
<svg width="32" height="32" viewBox="0 0 32 32" fill="none" xmlns="http://www.w3.org/2000/svg">
  <!-- Background with gradient -->
  <rect width="32" height="32" rx="7" fill="#5AB19A"/>
  
  <!-- Main Icon Group -->
  <g transform="translate(16, 16) scale(0.25)">
    <!-- Doctor Figure -->
    <g filter="url(#glow)">
      <!-- Medical Bag -->
      <rect x="-25" y="-15" width="12" height="12" rx="2" fill="#ffffff"/>
      <path d="M-21 -11 h4 M-19 -13 v4" stroke="#5AB19A" stroke-width="1"/>
      
      <!-- Doctor's Head and Body -->
      <rect x="-8" y="-20" width="16" height="24" rx="8" fill="#ffffff"/>
      <rect x="-12" y="0" width="24" height="30" rx="4" fill="#ffffff"/>
      
      <!-- Stethoscope -->
      <path d="M-8 15 C-12 15, -15 10, -12 5" stroke="#4A90E2" stroke-width="2" fill="none"/>
      <circle cx="-12" cy="5" r="3" fill="#4A90E2"/>
      
      <!-- Neural Network Nodes -->
      <g stroke="#4A90E2" stroke-width="0.5">
        <circle cx="0" cy="-10" r="1" fill="#4A90E2"/>
        <circle cx="-8" cy="-5" r="1" fill="#4A90E2"/>
        <circle cx="8" cy="-5" r="1" fill="#4A90E2"/>
        <line x1="0" y1="-10" x2="-8" y2="-5"/>
        <line x1="0" y1="-10" x2="8" y2="-5"/>
      </g>
    </g>
  </g>

  <!-- Effects -->
  <defs>
    <filter id="glow" x="-50%" y="-50%" width="200%" height="200%">
      <feGaussianBlur in="SourceGraphic" stdDeviation="1" result="blur"/>
      <feColorMatrix in="blur" type="matrix" values="1 0 0 0 0   0 1 0 0 0   0 0 1 0 0   0 0 0 18 -7" result="glow"/>
      <feBlend in="SourceGraphic" in2="glow" mode="normal"/>
    </filter>
  </defs>
</svg>
